<?xml version="1.0" encoding="UTF-8"?>
<svg width="49px" height="48px" viewBox="0 0 49 48" version="1.1" xmlns="http://www.w3.org/2000/svg" xmlns:xlink="http://www.w3.org/1999/xlink">
    <!-- Generator: Sketch 61.1 (89650) - https://sketch.com -->
    <title>Untitled</title>
    <desc>Created with Sketch.</desc>
    <g id="Page-1" stroke="none" stroke-width="1" fill="none" fill-rule="evenodd">
        <g id="research-(2)" fill-rule="nonzero">
            <path d="M41.1035528,30.9899409 L41.1035528,37.9801669 L35.112035,37.9801669 L35.112035,34.984408 C35.112035,32.7785464 36.9002748,30.9899409 39.106502,30.9899409 L41.1035528,30.9899409 Z" id="Path" fill="#A4B0C0"></path>
            <path d="M47.0950705,34.984408 L47.0950705,37.9801669 L41.1035528,37.9801669 L41.1035528,30.9899409 L43.1006034,30.9899409 C45.3068306,30.9899409 47.0950705,32.7785464 47.0950705,34.984408 L47.0950705,34.984408 Z" id="Path" fill="#A4B0C0"></path>
            <path d="M47.0950705,37.9801669 L47.0950705,42.9729765 C47.0950705,45.1792037 45.3068306,46.9674435 43.1006034,46.9674435 L39.106502,46.9674435 C36.9002748,46.9674435 35.112035,45.1792037 35.112035,42.9729765 L35.112035,37.9801669 L47.0950705,37.9801669 Z" id="Path" fill="#D0D7DF"></path>
            <path d="M10.1472556,38.9788751 C10.1472556,40.0818058 9.25313568,40.9759258 8.15020492,40.9759258 C7.04727415,40.9759258 6.15315415,40.0818058 6.15315415,38.9788751 C6.15315415,37.8759443 7.04727415,36.9814587 8.15020492,36.9814587 C9.25313568,36.9814587 10.1472556,37.8759443 10.1472556,38.9788751 L10.1472556,38.9788751 Z" id="Path" fill="#5FAE87"></path>
            <path d="M20.1332405,38.9788751 C20.1332405,40.6332712 18.7918777,41.974634 17.1374816,41.974634 C15.4830855,41.974634 14.1417227,40.6332712 14.1417227,38.9788751 C14.1417227,37.3241133 15.4830855,35.9831162 17.1374816,35.9831162 C18.7918777,35.9831162 20.1332405,37.3241133 20.1332405,38.9788751 Z" id="Path" fill="#5FAE87"></path>
            <path d="M13.1430145,32.9873573 L24.9563684,32.9873573 C25.7557738,37.6857838 23.6947267,42.4112717 19.7079393,45.0219556 C15.720786,47.6330053 10.5656086,47.6330053 6.57845539,45.0219556 C2.59130224,42.4112717 0.530620892,37.6857838 1.32966056,32.9873573 L13.1430145,32.9873573 Z M17.1374816,35.9831162 C15.4830855,35.9831162 14.1417227,37.3241133 14.1417227,38.9788751 C14.1417227,40.6332712 15.4830855,41.974634 17.1374816,41.974634 C18.7918777,41.974634 20.1332405,40.6332712 20.1332405,38.9788751 C20.1332405,37.3241133 18.7918777,35.9831162 17.1374816,35.9831162 Z M10.1472556,38.9788751 C10.1472556,37.8759443 9.25313568,36.9814587 8.15020492,36.9814587 C7.04727415,36.9814587 6.15315415,37.8759443 6.15315415,38.9788751 C6.15315415,40.0818058 7.04727415,40.9759258 8.15020492,40.9759258 C9.25167291,40.9726345 10.1439644,40.0803431 10.1472556,38.9788751 L10.1472556,38.9788751 Z" id="Shape" fill="#35DC86"></path>
            <polygon id="Path" fill="#A4B0C0" points="13.1430145 6.02552724 13.1430145 10.0196287 6.15315415 10.0196287 6.15315415 6.02552724"></polygon>
            <polygon id="Path" fill="#A4B0C0" points="20.1332405 6.02552724 20.1332405 10.0196287 13.1430145 10.0196287 13.1430145 6.02552724"></polygon>
            <path d="M13.1430145,10.0196287 L13.1430145,32.9873573 L1.32966056,32.9873573 C1.9805945,29.0495726 4.53276754,25.6866578 8.15020492,24.0000806 L8.15020492,10.0196287 L13.1430145,10.0196287 Z" id="Path" fill-opacity="0.504015516" fill="#CFE5FF"></path>
            <path d="M24.9563684,32.9873573 L13.1430145,32.9873573 L13.1430145,10.0196287 L18.1361897,10.0196287 L18.1361897,24.0000806 C21.7532614,25.6866578 24.3054345,29.0495726 24.9563684,32.9873573 Z" id="Path" fill-opacity="0.504015516" fill="#CFE5FF"></path>
            <path d="M8.15020492,35.9831162 C6.49580877,35.9831162 5.15444602,37.3241133 5.15444602,38.9788751 C5.15444602,40.6332712 6.49580877,41.974634 8.15020492,41.974634 C9.80460106,41.974634 11.1459638,40.6332712 11.1459638,38.9788751 C11.1459638,37.3241133 9.80460106,35.9831162 8.15020492,35.9831162 Z M8.15020492,39.9772176 C7.59873953,39.9772176 7.1514967,39.5303405 7.1514967,38.9788751 C7.1514967,38.4274097 7.59873953,37.9801669 8.15020492,37.9801669 C8.7016703,37.9801669 9.14891304,38.4274097 9.14891304,38.9788751 C9.14891304,39.5303405 8.7016703,39.9772176 8.15020492,39.9772176 L8.15020492,39.9772176 Z" id="Shape" fill="#4B4D5F"></path>
            <path d="M13.1430145,38.9788751 C13.1430145,41.1847366 14.9312544,42.9729765 17.1374816,42.9729765 C19.3433431,42.9729765 21.1319486,41.1847366 21.1319486,38.9788751 C21.1319486,36.7726479 19.3433431,34.984408 17.1374816,34.984408 C14.9312544,34.984408 13.1430145,36.7726479 13.1430145,38.9788751 L13.1430145,38.9788751 Z M17.1374816,36.9814587 C18.2404124,36.9814587 19.1345323,37.8759443 19.1345323,38.9788751 C19.1345323,40.0818058 18.2404124,40.9759258 17.1374816,40.9759258 C16.0345508,40.9759258 15.1404308,40.0818058 15.1404308,38.9788751 C15.1404308,37.8759443 16.0345508,36.9814587 17.1374816,36.9814587 L17.1374816,36.9814587 Z" id="Shape" fill="#4B4D5F"></path>
            <path d="M43.1006034,29.9915984 L42.1022609,29.9915984 L42.1022609,24.0000806 C42.0989697,21.2438508 39.8653155,19.0101966 37.1090856,19.0069054 L31.1175679,19.0069054 C29.4631717,19.0069054 28.121809,17.6659083 28.121809,16.0111465 L28.121809,5.02681902 C28.1185177,2.27058921 25.8852292,0.0373007557 23.1289994,0.0340094465 L17.1374816,0.0340094465 C14.3812518,0.0373007557 12.1479632,2.27058921 12.1446719,5.02681902 L6.15315415,5.02681902 C5.6013231,5.02681902 5.15444602,5.47406185 5.15444602,6.02552724 L5.15444602,10.0196287 C5.15444602,10.5714597 5.6013231,11.0183368 6.15315415,11.0183368 L7.1514967,11.0183368 L7.1514967,23.3780365 C1.46935533,26.3032166 -1.24811095,32.9211668 0.738334644,38.995697 C2.72478024,45.0702272 8.82783444,48.8035893 15.1404308,47.8059782 C21.453393,46.8083671 26.1079364,41.3752628 26.1247583,34.984408 C26.1145189,30.1221509 23.4277707,25.6606935 19.1345323,23.3780365 L19.1345323,11.0183368 L20.1332405,11.0183368 C20.6847059,11.0183368 21.1319486,10.5714597 21.1319486,10.0196287 L21.1319486,6.02552724 C21.1319486,5.47406185 20.6847059,5.02681902 20.1332405,5.02681902 L14.1417227,5.02681902 C14.1417227,3.37242296 15.4830855,2.03106012 17.1374816,2.03106012 L23.1289994,2.03106012 C24.7833955,2.03106012 26.1247583,3.37242296 26.1247583,5.02681902 L26.1247583,16.0111465 C26.1280495,18.7673763 28.361338,21.0010305 31.1175679,21.0043217 L37.1090856,21.0043217 C38.7638475,21.0043217 40.1048445,22.3453188 40.1048445,24.0000806 L40.1048445,29.9915984 L39.106502,29.9915984 C36.3502722,29.9948897 34.116618,32.2281782 34.1133268,34.984408 L34.1133268,42.9729765 C34.116618,45.7292063 36.3502722,47.9628605 39.106502,47.9661518 L43.1006034,47.9661518 C45.8568332,47.9628605 48.0904875,45.7292063 48.0937787,42.9729765 L48.0937787,34.984408 C48.0904875,32.2281782 45.8568332,29.9948897 43.1006034,29.9915984 L43.1006034,29.9915984 Z M7.1514967,7.02386979 L12.1446719,7.02386979 L12.1446719,9.02128613 L7.1514967,9.02128613 L7.1514967,7.02386979 Z M8.56672943,24.9077312 C8.9214519,24.7449977 9.14891304,24.3902753 9.14891304,24.0000806 L9.14891304,11.0183368 L12.1446719,11.0183368 L12.1446719,31.9886491 L2.58289127,31.9886491 C3.45506958,28.8718458 5.63862385,26.2874917 8.56672943,24.9077312 Z M17.7196652,24.9077312 C20.6470395,26.2878574 22.8305937,28.8718458 23.7031377,31.9886491 L16.1387734,31.9886491 L16.1387734,33.9856998 L24.0776076,33.9856998 C24.1086916,34.3203091 24.1277075,34.6549184 24.1277075,34.984408 C24.1277075,41.0508929 19.2094994,45.9687354 13.1430145,45.9687354 C7.07652961,45.9687354 2.15868713,41.0508929 2.15868713,34.984408 C2.15868713,34.6549184 2.17770318,34.3214062 2.20842141,33.9856998 L13.1430145,33.9856998 C13.6944799,33.9856998 14.1417227,33.5388227 14.1417227,32.9873573 L14.1417227,11.0183368 L17.1374816,11.0183368 L17.1374816,24.0000806 C17.1374816,24.3902753 17.3649427,24.7449977 17.7196652,24.9077312 Z M19.1345323,7.02386979 L19.1345323,9.02128613 L14.1417227,9.02128613 L14.1417227,7.02386979 L19.1345323,7.02386979 Z M46.0963623,34.984408 L46.0963623,36.9814587 L42.1022609,36.9814587 L42.1022609,31.9886491 L43.1006034,31.9886491 C44.7553653,31.9886491 46.0963623,33.3300119 46.0963623,34.984408 Z M39.106502,31.9886491 L40.1048445,31.9886491 L40.1048445,36.9814587 L36.1107431,36.9814587 L36.1107431,34.984408 C36.1107431,33.3300119 37.4517402,31.9886491 39.106502,31.9886491 Z M43.1006034,45.9687354 L39.106502,45.9687354 C37.4517402,45.9687354 36.1107431,44.6277383 36.1107431,42.9729765 L36.1107431,38.9788751 L46.0963623,38.9788751 L46.0963623,42.9729765 C46.0963623,44.6277383 44.7553653,45.9687354 43.1006034,45.9687354 Z" id="Shape" fill="#4B4D5F"></path>
        </g>
    </g>
</svg>